# xmcd
#
# Track frame offsets:
# 150
# 19458
# 37445
# 56435
# 70076
# 93844
# 114033
# 132247
# 150333
# 168920
# 188275
# 206095
# 227074
# 245107
# 264914
# 284391
# 302649
# 323708
# 343461
#
# Disc length: 4781 seconds
#
#
# Revision: 5
# Processed by: cddbd v1.5.1PL0 Copyright (c) Steve Scherf et al.
# Submitted via: FreeRIP 2.90 
#
DISCID=0912ab13
DTITLE=Kenny G - Kenny G - Ultimate
DYEAR=2003
DGENRE=Jazz
TTITLE0=Everlasting
TTITLE1=Havana
TTITLE2=Brazil
TTITLE3=What A Wonderful World (with Louis Armstrong)
TTITLE4=The Look Of Love (from Casino Royale)
TTITLE5=Silhouette
TTITLE6=One More Time (with Chante Moore)
TTITLE7=Theme From Dying Young
TTITLE8=Forever In Love
TTITLE9=We've Saved The Best For Last
TTITLE10=Songbird
TTITLE11=Jasmine Flower
TTITLE12=The Girl From Ipanema (with Bebel Gilberto)
TTITLE13=By The Time This Night is Over (with Peabo Bryson)
TTITLE14=The Champion's Theme
TTITLE15=Don't Make Me Wait For Love
TTITLE16=The Moment
TTITLE17=My Heart Will Go On (from Titanic)
TTITLE18=The Wedding Song
EXTD=YEAR: 2003
EXTT0=
EXTT1=
EXTT2=
EXTT3=
EXTT4=
EXTT5=
EXTT6=
EXTT7=
EXTT8=
EXTT9=
EXTT10=
EXTT11=
EXTT12=
EXTT13=
EXTT14=
EXTT15=
EXTT16=
EXTT17=
EXTT18=
PLAYORDER=
